<?xml version="1.0" encoding="UTF-8"?>
<svg width="44px" height="24px" viewBox="0 0 44 24" version="1.1" xmlns="http://www.w3.org/2000/svg" xmlns:xlink="http://www.w3.org/1999/xlink">
    <title>Combined Shape</title>
    <g id="Designs" stroke="none" stroke-width="1" fill="none" fill-rule="evenodd">
        <g id="Desktop---Active" transform="translate(-635.000000, -227.000000)" fill="#26B5C0" fill-rule="nonzero">
            <g id="Group-3" transform="translate(615.000000, 219.000000)">
                <path d="M31.0015469,22.3582796 C33.9189531,22.3582796 36.1821172,24.9508817 35.7642031,27.8635699 C35.5231484,29.5413333 34.4019219,30.9926022 32.8018516,31.6416344 C30.9654531,32.3865806 28.8647969,31.924129 27.5018281,30.4769032 C26.3144297,29.216086 26.2668203,27.8636559 26.2389766,27.8636559 C25.8195156,24.9402151 28.0958281,22.3582796 31.0015469,22.3582796 Z M53.0016328,22.3582796 C56.4592422,22.3582796 58.8004375,25.9246452 57.4115156,29.1015054 C56.5450078,31.0808602 54.4623125,32.2586667 52.2995234,31.9409032 C50.19225,31.6315699 48.5391562,29.9533763 48.2390625,27.8636559 C47.8207187,24.9485591 50.086375,22.3582796 53.0016328,22.3582796 Z M37.9623984,16.2750108 L37.9623984,17.7373763 C37.9623984,18.4707097 38.5735,19.0611613 39.3137656,19.0262366 C40.0071094,18.9935484 40.5405234,18.3956989 40.5405234,17.7009032 L40.5405234,17.7009032 L40.5405234,16.2750108 L48.8412266,16.2750108 L61.8974531,16.9911398 C62.4392891,17.0209032 62.9046406,17.3876129 63.0613047,17.9076129 C63.3311484,18.8031828 63.5068906,19.3845161 63.6241094,19.7776344 L63.6241094,19.7776344 L62.5770469,19.7776344 C61.8829297,19.7776344 61.2856641,20.3115699 61.2530078,21.0055914 C61.2181172,21.7465806 61.8079922,22.3582796 62.5406094,22.3582796 L62.5406094,22.3582796 L63.9859922,22.3582796 C63.8224531,24.5830538 62.4161719,26.5509677 60.3863281,27.408086 C60.5163516,23.1964731 57.1306719,19.7776344 53.0015469,19.7776344 C48.6854219,19.7776344 45.2398437,23.495828 45.6440078,27.8636559 L45.6440078,27.8636559 L38.359,27.8636559 C38.7897187,23.2086022 34.8561016,19.3328172 30.2280234,19.8180645 L30.2280234,19.8180645 L30.2280234,16.2750108 L37.9623984,16.2750108 Z M27.6499844,16.2750108 L27.6499844,20.5827957 C25.0051719,21.9354839 23.3611016,24.7742796 23.6435781,27.8566022 C21.615625,27.7393548 20.0016328,26.0514409 20.0016328,23.9926882 L20.0016328,23.9926882 L20.0014609,22.3582796 L21.4625703,22.3582796 C22.1744766,22.3582796 22.7516328,21.7805591 22.7516328,21.067957 C22.7516328,20.3553548 22.1744766,19.7776344 21.4625703,19.7776344 L21.4625703,19.7776344 L20.0006875,19.7776344 L20.0006875,19.7776344 L20.0016134,16.5645486 C20.0022084,16.4399249 20.0030007,16.3461756 20.0040391,16.2750108 L20.0040391,16.2750108 L27.6499844,16.2750108 Z M42.6355937,8.07870968 C45.2864219,8.07870968 47.6354375,9.67062366 48.6199375,12.1342796 L48.6199375,12.1342796 L49.2508047,13.7130323 C49.2248997,13.71161 49.2036599,13.7102867 49.1851886,13.7090556 L49.1593207,13.7072776 C49.1471879,13.7064224 49.1360788,13.7056173 49.1251933,13.7048595 L49.1034832,13.7034065 C49.0560631,13.7003915 49.0028233,13.6982319 48.8786504,13.6967045 L48.7805518,13.6957454 C48.768215,13.6956495 48.7553695,13.6955569 48.7419858,13.6954678 L48.6061985,13.6947524 C48.5893184,13.6946823 48.5718111,13.6946153 48.553647,13.6945511 L48.2282188,13.6937962 C48.2027455,13.6937588 48.1764672,13.6937239 48.1493542,13.6936912 L45.2839014,13.6937042 C45.2115476,13.6937237 45.1377664,13.6937435 45.0625282,13.6937635 L40.2106953,13.6944516 L38.5276094,8.07870968 L38.5276094,8.07870968 Z M29.0043594,8.0787957 L27.8821875,13.6945376 L20.7376875,13.6945376 C21.0586641,12.6669247 21.5264219,11.1696344 22.2086797,8.98425806 C22.3768594,8.4455914 22.8752109,8.0787957 23.4390469,8.0787957 L23.4390469,8.0787957 L29.0043594,8.0787957 Z M35.8360469,8.0787957 L37.5190469,13.6944516 L30.5115312,13.6944516 L31.6334453,8.0787957 L31.6334453,8.0787957 L35.8360469,8.0787957 Z" id="Combined-Shape"></path>
            </g>
        </g>
    </g>
</svg>