<?xml version="1.0" encoding="UTF-8"?>
<svg width="44px" height="20px" viewBox="0 0 44 20" version="1.1" xmlns="http://www.w3.org/2000/svg" xmlns:xlink="http://www.w3.org/1999/xlink">
    <title>Combined Shape</title>
    <g id="Designs" stroke="none" stroke-width="1" fill="none" fill-rule="evenodd">
        <g id="Desktop---Active" transform="translate(-328.000000, -230.000000)" fill="#FFD473" fill-rule="nonzero">
            <g id="Group-2" transform="translate(308.000000, 219.000000)">
                <path d="M52.9362729,24.1095798 C54.8784204,24.1095798 56.4528421,25.6521282 56.4528421,27.554958 C56.4528421,29.4577878 54.8784204,31.0003361 52.9362729,31.0003361 C50.9941254,31.0003361 49.4197037,29.4577878 49.4197037,27.554958 C49.4197037,25.6521282 50.9941254,24.1095798 52.9362729,24.1095798 Z M30.9791579,24.1095798 C32.9213054,24.1095798 34.4957271,25.6521282 34.4957271,27.554958 C34.4957271,29.4577878 32.9213054,31.0003361 30.9791579,31.0003361 C29.0370104,31.0003361 27.4625887,29.4577878 27.4625887,27.554958 C27.4625887,25.6521282 29.0370104,24.1095798 30.9791579,24.1095798 Z M37.9265263,19.2621008 L37.9265263,20.6906723 C37.9265263,21.4070588 38.5364366,21.9838655 39.2752593,21.9497479 C39.9672515,21.9178151 40.4996257,21.3337815 40.4996257,20.655042 L40.4996257,20.655042 L40.4996257,19.2621008 L48.755501,19.2621008 L62.2386277,20.574958 C63.1948772,20.6680672 63.9149162,21.4564706 63.9149162,22.3885714 C63.9149162,25.2797479 61.7891072,27.6921008 58.9888031,28.2078992 C59.3860039,24.6506723 56.5307212,21.5885714 52.9363587,21.5885714 C49.290191,21.5885714 46.4323353,24.727563 46.8972943,28.3112605 L46.8972943,28.3112605 L37.0182222,28.3112605 C37.4837817,24.7228571 34.6207797,21.5885714 30.9791579,21.5885714 C27.3843665,21.5885714 24.5294269,24.6510924 24.9267135,28.2082353 C22.7863236,27.8110084 21.0113996,26.2965546 20.3166628,24.2776471 L20.3166628,24.2776471 L21.4587758,24.2776471 C22.1899649,24.2776471 22.7786901,23.680084 22.7438674,22.9562185 C22.7112749,22.2782353 22.1151735,21.7566387 21.4224094,21.7566387 L21.4224094,21.7566387 L20,21.7566387 L20,21.7566387 L20.0006004,21.5045378 C20.0006004,20.2310924 21.0657778,19.2621008 22.3057544,19.2621008 L22.3057544,19.2621008 L37.9265263,19.2621008 Z M42.5906979,11.0003361 C45.2358441,11.0003361 47.5807953,12.5557983 48.5628616,14.962521 L49.2893333,16.7415126 L40.170269,16.7415126 L38.4128421,11.0003361 L42.5906979,11.0003361 Z M35.7261832,11.0003361 L37.4839532,16.7411765 L26.5051384,16.7411765 L29.8620897,13.0867227 C31.0800234,11.7607563 32.8227836,11.0003361 34.6435088,11.0003361 L34.6435088,11.0003361 L35.7261832,11.0003361 Z" id="Combined-Shape"></path>
            </g>
        </g>
    </g>
</svg>