<?xml version="1.0" encoding="UTF-8"?>
<svg width="44px" height="18px" viewBox="0 0 44 18" version="1.1" xmlns="http://www.w3.org/2000/svg" xmlns:xlink="http://www.w3.org/1999/xlink">
    <title>Combined Shape</title>
    <g id="Designs" stroke="none" stroke-width="1" fill="none" fill-rule="evenodd">
        <g id="Desktop---Active" transform="translate(-941.000000, -231.000000)" fill="#19B89D" fill-rule="nonzero">
            <g id="Group-4" transform="translate(921.000000, 219.000000)">
                <path d="M30.9790721,22.8352136 C32.9212197,22.8352136 34.4956413,24.4391643 34.4956413,26.4177379 C34.4956413,28.3963114 32.9212197,30.0002621 30.9790721,30.0002621 C29.0369246,30.0002621 27.4625029,28.3963114 27.4625029,26.4177379 C27.4625029,24.4391643 29.0369246,22.8352136 30.9790721,22.8352136 Z M52.9361871,22.8352136 C54.8783347,22.8352136 56.4527563,24.4391643 56.4527563,26.4177379 C56.4527563,28.3963114 54.8783347,30.0002621 52.9361871,30.0002621 C50.9940396,30.0002621 49.4196179,28.3963114 49.4196179,26.4177379 C49.4196179,24.4391643 50.9940396,22.8352136 52.9361871,22.8352136 Z M43.7925926,12.3842039 C44.2950331,11.8723398 45.1096764,11.8723398 45.6120312,12.3842039 L45.6120312,12.3842039 L49.3273294,16.1691845 C53.7712437,16.0541068 59.0269708,17.3112233 63.2910253,19.9223592 C63.6780195,20.1593301 63.9148304,20.5857379 63.9148304,21.045699 C63.9148304,24.0519612 61.7890214,26.5603398 58.9887173,27.0966699 C59.3859181,23.3978447 56.5306355,20.2138544 52.9362729,20.2138544 C49.2901053,20.2138544 46.4322495,23.4777961 46.8972086,27.2041456 L46.8972086,27.2041456 L37.2284444,27.2041456 C37.9876507,25.659683 38.2207236,25.1778641 38.5650052,24.4929755 L38.646719,24.3307433 C39.0680596,23.4957976 39.7027309,22.2608678 41.529809,18.6815825 C43.2097856,18.658165 45.0004055,18.2732621 46.7768733,17.2780194 L46.7768733,17.2780194 L43.7925926,14.237767 C43.290152,13.7259029 43.290152,12.896068 43.7925926,12.3842039 Z M36.1127485,13.4493495 C36.7958207,13.249165 37.5083977,13.6511068 37.7048109,14.3468155 C38.0567251,15.5930971 38.2925068,16.4278252 38.4537544,16.9987573 C38.6905653,17.8372427 38.6020507,18.7355825 38.2069084,19.5095825 C38.2132799,19.4970874 37.4043005,21.0813107 36.4744526,22.9040447 L36.2580429,23.3282913 C35.1877193,21.4373301 33.1981988,20.2138544 30.9790721,20.2138544 C27.3842807,20.2138544 24.528655,23.3984563 24.9267992,27.0986796 C23.0950097,26.751699 21.5126394,25.562301 20.6485068,23.8225922 C20.428078,23.3787087 20.4735361,22.8455243 20.7656686,22.4469029 L20.7656686,22.4469029 L21.7205458,21.144 L20.3961715,19.848699 C19.6449981,19.1141942 20.0197271,17.8245728 21.0350721,17.6179223 C24.7081368,16.8702682 26.9026372,16.422931 27.6497993,16.272045 L27.7799432,16.2458194 C27.8723302,16.2272567 27.9245713,16.2169215 27.9368109,16.2147961 C28.2505575,16.0693107 29.0063626,15.6239417 29.0063626,14.709 C29.0063626,13.974932 29.5987758,13.3817184 30.3231033,13.3986699 C31.0353372,13.4153592 31.5910409,14.0611748 31.5787758,14.7868544 C31.5684834,15.3974563 31.4373411,15.9327379 31.2311501,16.3981165 C32.8363353,16.6121942 34.4075556,16.9949126 35.9300585,17.5435631 L35.9300585,17.5435631 L35.2318051,15.0711845 C35.0354776,14.3755631 35.4299337,13.6494466 36.1127485,13.4493495 Z" id="Combined-Shape"></path>
            </g>
        </g>
    </g>
</svg>